<?xml version="1.0" encoding="UTF-8"?>
<!DOCTYPE svg PUBLIC "-//W3C//DTD SVG 1.1//EN" "http://www.w3.org/Graphics/SVG/1.1/DTD/svg11.dtd">
<svg xmlns="http://www.w3.org/2000/svg" version="1.1" width="547px" height="456px" style="shape-rendering:geometricPrecision; text-rendering:geometricPrecision; image-rendering:optimizeQuality; fill-rule:evenodd; clip-rule:evenodd" xmlns:xlink="http://www.w3.org/1999/xlink">
<g><path style="opacity:1" fill="#42b783" d="M 355.5,26.5 C 422.432,54.9454 465.932,104.279 486,174.5C 503.007,246.325 488.841,310.992 443.5,368.5C 441.516,368.516 440.516,367.516 440.5,365.5C 441.156,363.547 441.489,361.547 441.5,359.5C 442.491,342.461 435.158,330.795 419.5,324.5C 419.389,323.883 419.056,323.383 418.5,323C 380.501,322.5 342.501,322.333 304.5,322.5C 307.071,321.238 307.071,319.905 304.5,318.5C 304.977,317.522 305.643,316.689 306.5,316C 313.164,315.946 318.497,313.946 322.5,310C 324.167,309.667 325.833,309.333 327.5,309C 331.14,306.669 334.807,304.336 338.5,302C 337.5,301.667 336.5,301.333 335.5,301C 306.517,299.484 277.517,299.15 248.5,300C 248.167,300.333 247.833,300.667 247.5,301C 252.643,300.471 254.476,302.638 253,307.5C 248.226,312.18 243.226,316.513 238,320.5C 231.475,316.437 232.142,314.437 240,314.5C 240.597,311.693 239.597,309.693 237,308.5C 235.378,308.954 234.212,309.954 233.5,311.5C 229.326,311.579 226.659,313.579 225.5,317.5C 223.776,316.339 222.11,316.505 220.5,318C 217.874,322.756 216.207,322.256 215.5,316.5C 219.534,314.821 223.201,312.655 226.5,310C 230.628,307.937 234.962,306.437 239.5,305.5C 239.5,304.5 239.5,303.5 239.5,302.5C 241.827,302.753 243.827,302.086 245.5,300.5C 232.673,299.833 220.006,299.167 207.5,298.5C 252.168,298.667 296.835,298.5 341.5,298C 345.301,297.261 348.634,295.761 351.5,293.5C 354.053,291.403 356.386,289.07 358.5,286.5C 359.857,284.706 361.023,282.706 362,280.5C 362.833,212.164 362.667,143.831 361.5,75.5C 359.985,73.9178 358.319,72.5845 356.5,71.5C 354.571,68.6408 352.904,65.6408 351.5,62.5C 349.167,62.5 346.833,62.5 344.5,62.5C 343.653,61.0337 342.32,60.2004 340.5,60C 338.19,59.5034 335.857,59.3367 333.5,59.5C 333.013,64.179 332.347,68.8456 331.5,73.5C 330.209,71.1292 329.209,68.6292 328.5,66C 328.164,64.9701 327.497,64.4701 326.5,64.5C 324.968,61.9426 323.301,59.4426 321.5,57C 315.833,56.6667 310.167,56.3333 304.5,56C 301.894,55.5495 300.561,54.0495 300.5,51.5C 295.781,52.4199 292.448,50.7532 290.5,46.5C 292.277,45.3995 294.277,44.5662 296.5,44C 294.216,42.6371 294.049,41.1371 296,39.5C 300.481,41.2211 304.314,40.2211 307.5,36.5C 311.933,38.2556 312.6,40.9222 309.5,44.5C 308.167,45.1667 306.833,45.8333 305.5,46.5C 305.833,46.8333 306.167,47.1667 306.5,47.5C 309.508,46.9819 311.841,45.4819 313.5,43C 316.921,43.1214 319.588,41.7881 321.5,39C 323.701,38.1751 325.534,38.6751 327,40.5C 328.419,39.5399 329.919,38.7065 331.5,38C 332.585,35.828 333.919,33.828 335.5,32C 339.083,31.5419 342.083,30.0419 344.5,27.5C 340.743,26.0519 340.743,25.0519 344.5,24.5C 348.016,25.9195 351.682,26.5862 355.5,26.5 Z"/></g>
<g><path style="opacity:1" fill="#41b783" d="M 203.5,298.5 C 204.833,298.5 206.167,298.5 207.5,298.5C 220.006,299.167 232.673,299.833 245.5,300.5C 243.827,302.086 241.827,302.753 239.5,302.5C 239.5,303.5 239.5,304.5 239.5,305.5C 234.962,306.437 230.628,307.937 226.5,310C 223.201,312.655 219.534,314.821 215.5,316.5C 216.207,322.256 217.874,322.756 220.5,318C 222.11,316.505 223.776,316.339 225.5,317.5C 226.659,313.579 229.326,311.579 233.5,311.5C 234.212,309.954 235.378,308.954 237,308.5C 239.597,309.693 240.597,311.693 240,314.5C 232.142,314.437 231.475,316.437 238,320.5C 243.226,316.513 248.226,312.18 253,307.5C 254.476,302.638 252.643,300.471 247.5,301C 247.833,300.667 248.167,300.333 248.5,300C 277.517,299.15 306.517,299.484 335.5,301C 336.5,301.333 337.5,301.667 338.5,302C 334.807,304.336 331.14,306.669 327.5,309C 325.833,309.333 324.167,309.667 322.5,310C 318.497,313.946 313.164,315.946 306.5,316C 305.643,316.689 304.977,317.522 304.5,318.5C 307.071,319.905 307.071,321.238 304.5,322.5C 244.824,321.837 185.491,322.504 126.5,324.5C 123.738,325.38 121.071,326.546 118.5,328C 114.639,330.696 111.306,333.863 108.5,337.5C 107.292,338.234 105.959,338.567 104.5,338.5C 103.145,346.862 102.645,355.195 103,363.5C 102.282,364.451 101.449,364.617 100.5,364C 99.3045,359.689 96.6379,356.855 92.5,355.5C 51.4056,293.243 42.5723,226.576 66,155.5C 88.2137,97.6185 127.38,55.4518 183.5,29C 191.346,25.6629 199.346,22.8295 207.5,20.5C 211.821,20.7725 215.988,20.1058 220,18.5C 220.5,18.6667 221,18.8333 221.5,19C 218.978,20.6859 219.311,22.0192 222.5,23C 216.676,24.7913 211.009,25.958 205.5,26.5C 208.816,28.4408 209.816,31.1074 208.5,34.5C 205.183,36.7214 201.517,37.888 197.5,38C 196.833,39.6667 196.167,41.3333 195.5,43C 190.978,45.2701 186.311,46.9367 181.5,48C 177.84,52.5945 178.507,56.7612 183.5,60.5C 185.695,61.7691 187.861,61.7691 190,60.5C 189.848,63.447 189.681,66.447 189.5,69.5C 187.058,69.1192 186.391,69.7859 187.5,71.5C 185.317,73.7069 183.984,76.3736 183.5,79.5C 182.667,145.831 182.167,212.164 182,278.5C 181.311,277.643 180.478,276.977 179.5,276.5C 178.056,278.608 177.39,280.941 177.5,283.5C 178.978,283.238 180.311,283.571 181.5,284.5C 181.567,286.424 181.9,288.424 182.5,290.5C 183.478,290.023 184.311,289.357 185,288.5C 186.94,291.395 189.44,293.728 192.5,295.5C 191.754,296.736 191.421,298.07 191.5,299.5C 195.702,299.817 199.702,299.483 203.5,298.5 Z"/></g>
<g><path style="opacity:1" fill="#030704" d="M 267.5,39.5 C 275.603,38.7271 282.603,41.0604 288.5,46.5C 295.982,55.3939 305.649,59.5606 317.5,59C 321.36,60.1929 323.86,62.6929 325,66.5C 325.499,70.8206 325.666,75.1539 325.5,79.5C 324.188,80.1451 323.188,81.1451 322.5,82.5C 289.505,83.6666 256.505,83.8332 223.5,83C 222.151,82.2276 221.318,81.0609 221,79.5C 220.333,74.5 220.333,69.5 221,64.5C 221.717,63.9558 222.217,63.2891 222.5,62.5C 223.854,60.3041 225.854,58.8041 228.5,58C 241.9,58.5465 252.567,53.5465 260.5,43C 262.577,41.295 264.91,40.1283 267.5,39.5 Z"/></g>
<g><path style="opacity:1" fill="#429c76" d="M 266.5,63.5 C 265.883,63.3893 265.383,63.056 265,62.5C 264.3,48.8723 269.634,45.8723 281,53.5C 282.167,63 278,67.1667 268.5,66C 267.619,65.2917 266.953,64.4584 266.5,63.5 Z"/></g>
<g><path style="opacity:1" fill="#429d76" d="M 288.5,46.5 C 289.167,46.5 289.833,46.5 290.5,46.5C 292.448,50.7532 295.781,52.4199 300.5,51.5C 300.561,54.0495 301.894,55.5495 304.5,56C 310.167,56.3333 315.833,56.6667 321.5,57C 323.301,59.4426 324.968,61.9426 326.5,64.5C 327.989,69.7275 327.656,74.7275 325.5,79.5C 325.666,75.1539 325.499,70.8206 325,66.5C 323.86,62.6929 321.36,60.1929 317.5,59C 305.649,59.5606 295.982,55.3939 288.5,46.5 Z"/></g>
<g><path style="opacity:1" fill="#41b783" d="M 266.5,63.5 C 263.345,54.9811 266.345,50.9811 275.5,51.5C 275.016,54.7977 276.016,57.4643 278.5,59.5C 278.176,61.5689 277.342,61.9023 276,60.5C 275.945,62.8852 274.778,64.2186 272.5,64.5C 270.547,63.8444 268.547,63.5111 266.5,63.5 Z"/></g>
<g><path style="opacity:1" fill="#388c66" d="M 344.5,62.5 C 346.833,62.5 349.167,62.5 351.5,62.5C 352.904,65.6408 354.571,68.6408 356.5,71.5C 350.91,65.3009 343.91,62.6343 335.5,63.5C 335.5,68.5 335.5,73.5 335.5,78.5C 334.511,73.0247 334.178,67.358 334.5,61.5C 337.902,61.3424 341.236,61.6758 344.5,62.5 Z"/></g>
<g><path style="opacity:1" fill="#46a87e" d="M 222.5,62.5 C 222.217,63.2891 221.717,63.9558 221,64.5C 220.333,69.5 220.333,74.5 221,79.5C 221.318,81.0609 222.151,82.2276 223.5,83C 256.505,83.8332 289.505,83.6666 322.5,82.5C 323.188,81.1451 324.188,80.1451 325.5,79.5C 325.747,81.8583 325.081,83.8583 323.5,85.5C 293.789,85.1747 264.123,85.5081 234.5,86.5C 230.18,85.8885 225.847,85.2218 221.5,84.5C 220.273,83.4096 219.44,82.0762 219,80.5C 218.359,74.4717 218.526,68.4717 219.5,62.5C 220.5,62.5 221.5,62.5 222.5,62.5 Z"/></g>
<g><path style="opacity:1" fill="#3b8c67" d="M 356.5,71.5 C 358.319,72.5845 359.985,73.9178 361.5,75.5C 362.667,143.831 362.833,212.164 362,280.5C 361.023,282.706 359.857,284.706 358.5,286.5C 358.523,284.073 359.023,281.74 360,279.5C 360.667,212.833 360.667,146.167 360,79.5C 359.467,76.495 358.3,73.8283 356.5,71.5 Z"/></g>
<g><path style="opacity:1" fill="#010502" d="M 202.5,63.5 C 205.167,63.5 207.833,63.5 210.5,63.5C 209.746,68.4635 209.413,73.4635 209.5,78.5C 207.473,78.3379 205.473,78.5045 203.5,79C 202.944,79.3826 202.611,79.8826 202.5,80.5C 202.167,80.5 201.833,80.5 201.5,80.5C 200.778,80.9175 200.278,81.5842 200,82.5C 199.168,147.668 199.335,212.668 200.5,277.5C 201.473,279.139 202.806,280.473 204.5,281.5C 250.665,282.665 296.998,282.832 343.5,282C 344.333,281.167 345.167,280.333 346,279.5C 346.832,213.999 346.665,148.665 345.5,83.5C 345.672,82.5084 345.338,81.8417 344.5,81.5C 342.112,78.9238 339.112,77.9238 335.5,78.5C 335.5,73.5 335.5,68.5 335.5,63.5C 343.91,62.6343 350.91,65.3009 356.5,71.5C 358.3,73.8283 359.467,76.495 360,79.5C 360.667,146.167 360.667,212.833 360,279.5C 359.023,281.74 358.523,284.073 358.5,286.5C 356.386,289.07 354.053,291.403 351.5,293.5C 347.82,294.56 344.154,295.726 340.5,297C 295.167,297.667 249.833,297.667 204.5,297C 202.564,296.187 200.564,295.687 198.5,295.5C 190.895,292.006 186.395,286.006 185,277.5C 184.333,211.833 184.333,146.167 185,80.5C 187.466,71.1988 193.299,65.5321 202.5,63.5 Z"/></g>
<g><path style="opacity:1" fill="#071c10" d="M 345.5,83.5 C 346.665,148.665 346.832,213.999 346,279.5C 345.167,280.333 344.333,281.167 343.5,282C 296.998,282.832 250.665,282.665 204.5,281.5C 248.167,281.5 291.833,281.5 335.5,281.5C 341.057,282.964 344.223,280.964 345,275.5C 345.5,211.501 345.667,147.501 345.5,83.5 Z"/></g>
<g><path style="opacity:1" fill="#4eab83" d="M 201.5,80.5 C 201.833,80.5 202.167,80.5 202.5,80.5C 203.167,80.5 203.833,80.5 204.5,80.5C 204.688,82.1033 204.188,83.4366 203,84.5C 202.17,149.207 202.337,213.874 203.5,278.5C 204.376,279.251 205.376,279.751 206.5,280C 249.499,280.5 292.499,280.667 335.5,280.5C 335.5,280.833 335.5,281.167 335.5,281.5C 291.833,281.5 248.167,281.5 204.5,281.5C 202.806,280.473 201.473,279.139 200.5,277.5C 200.181,211.811 200.514,146.144 201.5,80.5 Z"/></g>
<g><path style="opacity:1" fill="#46b484" d="M 344.5,62.5 C 341.236,61.6758 337.902,61.3424 334.5,61.5C 334.178,67.358 334.511,73.0247 335.5,78.5C 339.112,77.9238 342.112,78.9238 344.5,81.5C 344.832,146.002 344.499,210.335 343.5,274.5C 343.666,268.158 343.5,261.825 343,255.5C 341.249,254.778 339.749,253.778 338.5,252.5C 336.841,248.664 338.175,246.498 342.5,246C 341.833,245.333 341.167,244.667 340.5,244C 341.201,230.054 341.867,216.054 342.5,202C 342.167,201.167 341.833,200.333 341.5,199.5C 339.833,200.5 338.5,201.833 337.5,203.5C 333.809,204.329 330.642,205.996 328,208.5C 327.303,206.85 325.637,205.517 323,204.5C 322.792,202.141 322.626,199.974 322.5,198C 297.775,197.883 273.441,197.883 249.5,198C 245.239,201.734 242.573,200.734 241.5,195C 240.451,194.508 239.451,194.674 238.5,195.5C 237.032,193.667 235.365,193.334 233.5,194.5C 233.833,195.167 234.167,195.833 234.5,196.5C 229.5,197.833 224.5,197.833 219.5,196.5C 218.194,195.088 217.36,193.421 217,191.5C 216.667,192.167 216.333,192.833 216,193.5C 215.5,192.333 214.667,191.5 213.5,191C 215.497,189.847 215.83,188.347 214.5,186.5C 213.126,187.711 211.626,188.711 210,189.5C 207.98,188.968 207.147,187.635 207.5,185.5C 208.833,185.5 210.167,185.5 211.5,185.5C 211.376,183.048 210.376,181.048 208.5,179.5C 209.894,177.354 210.56,175.021 210.5,172.5C 213.572,172.183 216.572,172.516 219.5,173.5C 220.63,174.622 221.297,175.956 221.5,177.5C 219.1,174.76 216.1,173.927 212.5,175C 211.409,177.064 211.242,179.231 212,181.5C 216.777,186.953 222.11,191.619 228,195.5C 228.833,195.333 229.667,195.167 230.5,195C 237.063,187.719 244.063,180.885 251.5,174.5C 249.36,180.301 245.693,184.801 240.5,188C 237.482,192.802 238.315,193.636 243,190.5C 244.093,192.349 245.426,194.016 247,195.5C 247.147,192.89 247.981,190.556 249.5,188.5C 248.318,186.533 248.985,185.2 251.5,184.5C 262.197,183.812 272.864,183.145 283.5,182.5C 297.441,183.446 311.274,183.779 325,183.5C 325.833,183.167 326.667,182.833 327.5,182.5C 324.216,179.024 324.883,177.357 329.5,177.5C 329.238,178.978 329.571,180.311 330.5,181.5C 332.751,183.72 334.918,186.053 337,188.5C 338.789,186.771 340.956,186.104 343.5,186.5C 343.5,151.833 343.5,117.167 343.5,82.5C 340.975,81.36 338.308,80.6933 335.5,80.5C 335.33,81.8221 335.663,82.9887 336.5,84C 334.558,86.1374 332.891,88.4708 331.5,91C 332.148,92.4397 332.481,93.9397 332.5,95.5C 329.253,95.5848 326.419,94.5848 324,92.5C 320.527,93.903 317.194,95.5697 314,97.5C 311.727,95.5297 309.894,93.1963 308.5,90.5C 311.961,89.8653 315.295,88.8653 318.5,87.5C 319.524,88.8532 320.857,89.5198 322.5,89.5C 322.36,87.8762 323.027,86.7096 324.5,86C 324.272,85.6012 323.938,85.4346 323.5,85.5C 325.081,83.8583 325.747,81.8583 325.5,79.5C 327.656,74.7275 327.989,69.7275 326.5,64.5C 327.497,64.4701 328.164,64.9701 328.5,66C 329.209,68.6292 330.209,71.1292 331.5,73.5C 332.347,68.8456 333.013,64.179 333.5,59.5C 335.857,59.3367 338.19,59.5034 340.5,60C 342.32,60.2004 343.653,61.0337 344.5,62.5 Z"/></g>
<g><path style="opacity:1" fill="#04190c" d="M 330.5,186.5 C 332.973,186.088 334.306,187.088 334.5,189.5C 334.598,191.553 333.931,193.22 332.5,194.5C 332.555,192.459 332.555,190.292 332.5,188C 306.833,187.333 281.167,187.333 255.5,188C 252.967,190.084 252.967,192.084 255.5,194C 280.498,194.5 305.498,194.667 330.5,194.5C 304.627,195.819 278.627,195.819 252.5,194.5C 249.966,192.084 249.966,189.75 252.5,187.5C 278.455,186.518 304.455,186.185 330.5,186.5 Z"/></g>
<g><path style="opacity:1" fill="#000101" d="M 332.5,194.5 C 331.833,194.5 331.167,194.5 330.5,194.5C 305.498,194.667 280.498,194.5 255.5,194C 252.967,192.084 252.967,190.084 255.5,188C 281.167,187.333 306.833,187.333 332.5,188C 332.555,190.292 332.555,192.459 332.5,194.5 Z"/></g>
<g><path style="opacity:1" fill="#3c8e6a" d="M 334.5,189.5 C 336.375,192.908 335.375,195.074 331.5,196C 305.5,196.667 279.5,196.667 253.5,196C 252.944,195.617 252.611,195.117 252.5,194.5C 278.627,195.819 304.627,195.819 330.5,194.5C 331.167,194.5 331.833,194.5 332.5,194.5C 333.931,193.22 334.598,191.553 334.5,189.5 Z"/></g>
<g><path style="opacity:1" fill="#42b683" d="M 355.5,26.5 C 351.682,26.5862 348.016,25.9195 344.5,24.5C 340.743,25.0519 340.743,26.0519 344.5,27.5C 342.083,30.0419 339.083,31.5419 335.5,32C 333.919,33.828 332.585,35.828 331.5,38C 329.919,38.7065 328.419,39.5399 327,40.5C 325.534,38.6751 323.701,38.1751 321.5,39C 319.588,41.7881 316.921,43.1214 313.5,43C 311.841,45.4819 309.508,46.9819 306.5,47.5C 306.167,47.1667 305.833,46.8333 305.5,46.5C 306.833,45.8333 308.167,45.1667 309.5,44.5C 312.6,40.9222 311.933,38.2556 307.5,36.5C 304.314,40.2211 300.481,41.2211 296,39.5C 294.049,41.1371 294.216,42.6371 296.5,44C 294.277,44.5662 292.277,45.3995 290.5,46.5C 289.833,46.5 289.167,46.5 288.5,46.5C 288.762,45.0222 288.429,43.6888 287.5,42.5C 285.336,42.0024 283.669,40.8358 282.5,39C 277.316,38.1837 272.316,38.3503 267.5,39.5C 264.91,40.1283 262.577,41.295 260.5,43C 252.567,53.5465 241.9,58.5465 228.5,58C 225.854,58.8041 223.854,60.3041 222.5,62.5C 221.5,62.5 220.5,62.5 219.5,62.5C 218.526,68.4717 218.359,74.4717 219,80.5C 219.44,82.0762 220.273,83.4096 221.5,84.5C 225.847,85.2218 230.18,85.8885 234.5,86.5C 264.123,85.5081 293.789,85.1747 323.5,85.5C 323.938,85.4346 324.272,85.6012 324.5,86C 323.027,86.7096 322.36,87.8762 322.5,89.5C 320.857,89.5198 319.524,88.8532 318.5,87.5C 315.295,88.8653 311.961,89.8653 308.5,90.5C 309.894,93.1963 311.727,95.5297 314,97.5C 317.194,95.5697 320.527,93.903 324,92.5C 326.419,94.5848 329.253,95.5848 332.5,95.5C 332.481,93.9397 332.148,92.4397 331.5,91C 332.891,88.4708 334.558,86.1374 336.5,84C 335.663,82.9887 335.33,81.8221 335.5,80.5C 338.308,80.6933 340.975,81.36 343.5,82.5C 343.5,117.167 343.5,151.833 343.5,186.5C 340.956,186.104 338.789,186.771 337,188.5C 334.918,186.053 332.751,183.72 330.5,181.5C 329.571,180.311 329.238,178.978 329.5,177.5C 324.883,177.357 324.216,179.024 327.5,182.5C 326.667,182.833 325.833,183.167 325,183.5C 311.274,183.779 297.441,183.446 283.5,182.5C 272.864,183.145 262.197,183.812 251.5,184.5C 248.985,185.2 248.318,186.533 249.5,188.5C 247.981,190.556 247.147,192.89 247,195.5C 245.426,194.016 244.093,192.349 243,190.5C 238.315,193.636 237.482,192.802 240.5,188C 245.693,184.801 249.36,180.301 251.5,174.5C 255.144,168.34 253.478,165.174 246.5,165C 241.029,171.224 235.363,177.224 229.5,183C 225.978,182.68 223.311,180.847 221.5,177.5C 221.297,175.956 220.63,174.622 219.5,173.5C 216.572,172.516 213.572,172.183 210.5,172.5C 210.56,175.021 209.894,177.354 208.5,179.5C 210.376,181.048 211.376,183.048 211.5,185.5C 210.167,185.5 208.833,185.5 207.5,185.5C 207.147,187.635 207.98,188.968 210,189.5C 211.626,188.711 213.126,187.711 214.5,186.5C 215.83,188.347 215.497,189.847 213.5,191C 214.667,191.5 215.5,192.333 216,193.5C 216.333,192.833 216.667,192.167 217,191.5C 217.36,193.421 218.194,195.088 219.5,196.5C 224.5,197.833 229.5,197.833 234.5,196.5C 234.167,195.833 233.833,195.167 233.5,194.5C 235.365,193.334 237.032,193.667 238.5,195.5C 239.451,194.674 240.451,194.508 241.5,195C 242.573,200.734 245.239,201.734 249.5,198C 273.441,197.883 297.775,197.883 322.5,198C 322.626,199.974 322.792,202.141 323,204.5C 325.637,205.517 327.303,206.85 328,208.5C 330.642,205.996 333.809,204.329 337.5,203.5C 338.5,201.833 339.833,200.5 341.5,199.5C 341.833,200.333 342.167,201.167 342.5,202C 341.867,216.054 341.201,230.054 340.5,244C 341.167,244.667 341.833,245.333 342.5,246C 338.175,246.498 336.841,248.664 338.5,252.5C 339.749,253.778 341.249,254.778 343,255.5C 343.5,261.825 343.666,268.158 343.5,274.5C 343.096,279.326 340.429,281.326 335.5,280.5C 292.499,280.667 249.499,280.5 206.5,280C 205.376,279.751 204.376,279.251 203.5,278.5C 202.337,213.874 202.17,149.207 203,84.5C 204.188,83.4366 204.688,82.1033 204.5,80.5C 206.556,79.7839 208.723,79.1172 211,78.5C 211.499,73.1771 211.666,67.8437 211.5,62.5C 208.287,62.19 205.287,62.5233 202.5,63.5C 193.299,65.5321 187.466,71.1988 185,80.5C 184.333,146.167 184.333,211.833 185,277.5C 186.395,286.006 190.895,292.006 198.5,295.5C 199.899,296.89 201.566,297.89 203.5,298.5C 199.702,299.483 195.702,299.817 191.5,299.5C 191.421,298.07 191.754,296.736 192.5,295.5C 189.44,293.728 186.94,291.395 185,288.5C 184.311,289.357 183.478,290.023 182.5,290.5C 181.9,288.424 181.567,286.424 181.5,284.5C 180.311,283.571 178.978,283.238 177.5,283.5C 177.39,280.941 178.056,278.608 179.5,276.5C 180.478,276.977 181.311,277.643 182,278.5C 182.167,212.164 182.667,145.831 183.5,79.5C 183.984,76.3736 185.317,73.7069 187.5,71.5C 186.391,69.7859 187.058,69.1192 189.5,69.5C 189.681,66.447 189.848,63.447 190,60.5C 187.861,61.7691 185.695,61.7691 183.5,60.5C 178.507,56.7612 177.84,52.5945 181.5,48C 186.311,46.9367 190.978,45.2701 195.5,43C 196.167,41.3333 196.833,39.6667 197.5,38C 201.517,37.888 205.183,36.7214 208.5,34.5C 209.816,31.1074 208.816,28.4408 205.5,26.5C 211.009,25.958 216.676,24.7913 222.5,23C 219.311,22.0192 218.978,20.6859 221.5,19C 221,18.8333 220.5,18.6667 220,18.5C 215.988,20.1058 211.821,20.7725 207.5,20.5C 257.531,4.72369 306.864,6.72369 355.5,26.5 Z"/></g>
<g><path style="opacity:1" fill="#255d43" d="M 330.5,186.5 C 304.455,186.185 278.455,186.518 252.5,187.5C 252.611,186.883 252.944,186.383 253.5,186C 279.337,185.17 305.003,185.337 330.5,186.5 Z"/></g>
<g><path style="opacity:1" fill="#040d07" d="M 251.5,174.5 C 244.063,180.885 237.063,187.719 230.5,195C 229.667,195.167 228.833,195.333 228,195.5C 222.11,191.619 216.777,186.953 212,181.5C 211.242,179.231 211.409,177.064 212.5,175C 216.1,173.927 219.1,174.76 221.5,177.5C 223.311,180.847 225.978,182.68 229.5,183C 235.363,177.224 241.029,171.224 246.5,165C 253.478,165.174 255.144,168.34 251.5,174.5 Z"/></g>
<g><path style="opacity:1" fill="#08311c" d="M 333.5,129.5 C 334.814,131.895 334.814,134.395 333.5,137C 306.664,137.83 279.997,137.664 253.5,136.5C 279.835,136.667 306.169,136.5 332.5,136C 333.423,133.959 333.756,131.792 333.5,129.5 Z"/></g>
<g><path style="opacity:1" fill="#000301" d="M 331.5,128.5 C 331.842,129.338 332.508,129.672 333.5,129.5C 333.756,131.792 333.423,133.959 332.5,136C 306.169,136.5 279.835,136.667 253.5,136.5C 252.007,135.688 251.34,134.355 251.5,132.5C 251.52,131.274 251.853,130.274 252.5,129.5C 278.789,128.518 305.122,128.185 331.5,128.5 Z"/></g>
<g><path style="opacity:1" fill="#1e4e38" d="M 331.5,128.5 C 305.122,128.185 278.789,128.518 252.5,129.5C 252.611,128.883 252.944,128.383 253.5,128C 279.67,127.17 305.67,127.337 331.5,128.5 Z"/></g>
<g><path style="opacity:1" fill="#040e06" d="M 247.5,106.5 C 252.494,106.329 254.328,108.662 253,113.5C 245.833,122 238,129.833 229.5,137C 228.167,137.667 226.833,137.667 225.5,137C 220.957,132.625 216.624,128.125 212.5,123.5C 211.534,121.604 211.201,119.604 211.5,117.5C 214.208,116.551 216.874,116.551 219.5,117.5C 222.108,120.354 224.941,123.021 228,125.5C 234.356,118.976 240.856,112.643 247.5,106.5 Z"/></g>
<g><path style="opacity:1" fill="#256548" d="M 202.5,63.5 C 205.287,62.5233 208.287,62.19 211.5,62.5C 211.666,67.8437 211.499,73.1771 211,78.5C 208.723,79.1172 206.556,79.7839 204.5,80.5C 203.833,80.5 203.167,80.5 202.5,80.5C 202.611,79.8826 202.944,79.3826 203.5,79C 205.473,78.5045 207.473,78.3379 209.5,78.5C 209.413,73.4635 209.746,68.4635 210.5,63.5C 207.833,63.5 205.167,63.5 202.5,63.5 Z"/></g>
<g><path style="opacity:1" fill="#3b906b" d="M 267.5,39.5 C 272.316,38.3503 277.316,38.1837 282.5,39C 283.669,40.8358 285.336,42.0024 287.5,42.5C 288.429,43.6888 288.762,45.0222 288.5,46.5C 282.603,41.0604 275.603,38.7271 267.5,39.5 Z"/></g>
<g><path style="opacity:1" fill="#307757" d="M 344.5,81.5 C 345.338,81.8417 345.672,82.5084 345.5,83.5C 345.667,147.501 345.5,211.501 345,275.5C 344.223,280.964 341.057,282.964 335.5,281.5C 335.5,281.167 335.5,280.833 335.5,280.5C 340.429,281.326 343.096,279.326 343.5,274.5C 344.499,210.335 344.832,146.002 344.5,81.5 Z"/></g>
<g><path style="opacity:1" fill="#030c05" d="M 250.5,233.5 C 243.671,240.162 236.671,246.662 229.5,253C 228.167,253.667 226.833,253.667 225.5,253C 222.297,249.629 218.964,246.462 215.5,243.5C 213.765,241.765 212.432,239.765 211.5,237.5C 212.437,233.717 214.771,232.217 218.5,233C 221.38,236.217 224.547,239.05 228,241.5C 233.488,236.012 238.988,230.512 244.5,225C 253.628,222.635 255.628,225.469 250.5,233.5 Z"/></g>
<g><path style="opacity:1" fill="#002915" d="M 201.5,80.5 C 200.514,146.144 200.181,211.811 200.5,277.5C 199.335,212.668 199.168,147.668 200,82.5C 200.278,81.5842 200.778,80.9175 201.5,80.5 Z"/></g>
<g><path style="opacity:1" fill="#44a57c" d="M 250.5,233.5 C 250.5,235.5 250.5,237.5 250.5,239.5C 247.956,239.104 245.789,239.771 244,241.5C 242.97,243.847 242.303,246.181 242,248.5C 245.003,251.106 245.836,250.44 244.5,246.5C 246.007,245.261 247.174,245.595 248,247.5C 249.162,245.162 250.996,243.828 253.5,243.5C 279.663,242.337 305.997,242.17 332.5,243C 334.975,246.029 336.975,249.196 338.5,252.5C 338.611,254.648 337.944,254.981 336.5,253.5C 334.885,254.154 333.218,254.654 331.5,255C 305.16,255.833 278.827,255.667 252.5,254.5C 251.5,252.833 250.167,251.5 248.5,250.5C 247.614,251.325 247.281,252.325 247.5,253.5C 244.833,252.833 242.167,252.167 239.5,251.5C 239.657,250.127 239.49,248.793 239,247.5C 236.167,249 234,251.167 232.5,254C 227.95,254.722 223.616,254.222 219.5,252.5C 218.623,249.292 217.289,246.292 215.5,243.5C 218.964,246.462 222.297,249.629 225.5,253C 226.833,253.667 228.167,253.667 229.5,253C 236.671,246.662 243.671,240.162 250.5,233.5 Z"/></g>
<g><path style="opacity:1" fill="#011808" d="M 252.5,245.5 C 252.833,245.5 253.167,245.5 253.5,245.5C 253.244,247.792 253.577,249.959 254.5,252C 280.165,252.5 305.831,252.667 331.5,252.5C 305.67,253.663 279.67,253.83 253.5,253C 251.354,250.643 251.021,248.143 252.5,245.5 Z"/></g>
<g><path style="opacity:1" fill="#000501" d="M 330.5,244.5 C 335.191,246.844 335.525,249.511 331.5,252.5C 305.831,252.667 280.165,252.5 254.5,252C 253.577,249.959 253.244,247.792 253.5,245.5C 279.092,244.51 304.759,244.176 330.5,244.5 Z"/></g>
<g><path style="opacity:1" fill="#337056" d="M 253.5,243.5 C 279.339,243.169 305.005,243.502 330.5,244.5C 304.759,244.176 279.092,244.51 253.5,245.5C 253.167,245.5 252.833,245.5 252.5,245.5C 252.833,244.833 253.167,244.167 253.5,243.5 Z"/></g>
<g><path style="opacity:1" fill="#3d8d6c" d="M 351.5,293.5 C 348.634,295.761 345.301,297.261 341.5,298C 296.835,298.5 252.168,298.667 207.5,298.5C 206.167,298.5 204.833,298.5 203.5,298.5C 201.566,297.89 199.899,296.89 198.5,295.5C 200.564,295.687 202.564,296.187 204.5,297C 249.833,297.667 295.167,297.667 340.5,297C 344.154,295.726 347.82,294.56 351.5,293.5 Z"/></g>
<g><path style="opacity:0.482" fill="#46a47f" d="M 304.5,322.5 C 342.501,322.333 380.501,322.5 418.5,323C 419.056,323.383 419.389,323.883 419.5,324.5C 321.833,323.167 224.167,323.167 126.5,324.5C 185.491,322.504 244.824,321.837 304.5,322.5 Z"/></g>
<g><path style="opacity:0.941" fill="#040404" d="M 407.5,343.5 C 422.07,341.235 427.904,347.235 425,361.5C 424.215,363.286 423.049,364.786 421.5,366C 416.282,367.563 410.949,367.896 405.5,367C 403.714,366.215 402.214,365.049 401,363.5C 399.466,359.289 399.133,354.956 400,350.5C 401.171,346.677 403.671,344.343 407.5,343.5 Z M 408.5,349.5 C 419.053,347.863 422.053,351.697 417.5,361C 414.167,361.667 410.833,361.667 407.5,361C 404.689,356.856 405.022,353.022 408.5,349.5 Z"/></g>
<g><path style="opacity:0.902" fill="#030303" d="M 120.5,344.5 C 122.857,344.337 125.19,344.503 127.5,345C 131.362,349.229 134.862,353.729 138,358.5C 138.499,353.845 138.666,349.179 138.5,344.5C 140.5,344.5 142.5,344.5 144.5,344.5C 144.5,352.167 144.5,359.833 144.5,367.5C 142.473,367.662 140.473,367.495 138.5,367C 134.667,362.5 130.833,358 127,353.5C 126.501,358.155 126.334,362.821 126.5,367.5C 124.5,367.5 122.5,367.5 120.5,367.5C 120.5,359.833 120.5,352.167 120.5,344.5 Z"/></g>
<g><path style="opacity:0.886" fill="#030303" d="M 162.5,344.5 C 165.119,344.232 167.619,344.565 170,345.5C 174.011,352.516 177.178,359.85 179.5,367.5C 175.855,368.32 173.522,366.987 172.5,363.5C 168.5,362.167 164.5,362.167 160.5,363.5C 159.478,366.987 157.145,368.32 153.5,367.5C 156.223,359.722 159.223,352.055 162.5,344.5 Z M 165.5,350.5 C 167.306,352.089 168.639,354.089 169.5,356.5C 167.5,357.833 165.5,357.833 163.5,356.5C 164.747,354.677 165.414,352.677 165.5,350.5 Z"/></g>
<g><path style="opacity:0.827" fill="#010101" d="M 187.5,344.5 C 195.167,344.5 202.833,344.5 210.5,344.5C 210.739,346.467 210.406,348.301 209.5,350C 204.511,350.499 199.511,350.666 194.5,350.5C 194.5,351.5 194.5,352.5 194.5,353.5C 197.728,353.701 200.895,353.367 204,352.5C 205.885,352.862 206.719,354.029 206.5,356C 206.415,357.107 206.081,358.107 205.5,359C 201.848,359.499 198.182,359.665 194.5,359.5C 196.238,365.927 193.905,368.594 187.5,367.5C 187.5,359.833 187.5,352.167 187.5,344.5 Z"/></g>
<g><path style="opacity:0.917" fill="#020202" d="M 218.5,344.5 C 220.5,344.5 222.5,344.5 224.5,344.5C 224.5,352.167 224.5,359.833 224.5,367.5C 222.5,367.5 220.5,367.5 218.5,367.5C 218.5,359.833 218.5,352.167 218.5,344.5 Z"/></g>
<g><path style="opacity:0.859" fill="#040404" d="M 240.5,343.5 C 245.267,343.191 249.934,343.691 254.5,345C 255.406,346.699 255.739,348.533 255.5,350.5C 250.851,349.705 246.184,349.539 241.5,350C 241.043,350.414 240.709,350.914 240.5,351.5C 245.621,351.933 250.455,353.267 255,355.5C 257.223,359.388 256.723,362.888 253.5,366C 247.277,367.581 240.944,367.915 234.5,367C 233.231,364.861 233.231,362.695 234.5,360.5C 237.11,361.116 239.777,361.449 242.5,361.5C 245.364,361.614 248.03,361.114 250.5,360C 245.961,358.784 241.294,357.784 236.5,357C 231.741,350.609 233.074,346.109 240.5,343.5 Z"/></g>
<g><path style="opacity:0.835" fill="#030303" d="M 276.5,344.5 C 284.833,344.5 293.167,344.5 301.5,344.5C 301.739,346.467 301.406,348.301 300.5,350C 297.854,350.497 295.187,350.664 292.5,350.5C 292.5,356.167 292.5,361.833 292.5,367.5C 290.208,367.756 288.041,367.423 286,366.5C 285.501,361.177 285.334,355.844 285.5,350.5C 282.813,350.664 280.146,350.497 277.5,350C 276.594,348.301 276.261,346.467 276.5,344.5 Z"/></g>
<g><path style="opacity:0.888" fill="#030304" d="M 316.5,343.5 C 333.658,342.138 338.991,349.305 332.5,365C 325.221,368.464 318.055,368.298 311,364.5C 306.306,355.524 308.139,348.524 316.5,343.5 Z M 318.5,349.5 C 328.191,348.428 331.191,352.261 327.5,361C 317.98,364.193 314.147,361.026 316,351.5C 316.995,350.934 317.828,350.267 318.5,349.5 Z"/></g>
<g><path style="opacity:0.908" fill="#040404" d="M 368.5,343.5 C 373.179,343.334 377.845,343.501 382.5,344C 384.899,344.731 387.065,345.898 389,347.5C 394.106,361.33 389.44,367.997 375,367.5C 371.914,367.478 368.914,367.145 366,366.5C 365.5,359.174 365.334,351.841 365.5,344.5C 366.791,344.737 367.791,344.404 368.5,343.5 Z M 372.5,349.5 C 375.978,349.184 379.312,349.684 382.5,351C 385.167,354.333 385.167,357.667 382.5,361C 379.183,361.498 375.85,361.665 372.5,361.5C 372.5,357.5 372.5,353.5 372.5,349.5 Z"/></g>
<g><path style="opacity:0.907" fill="#050505" d="M 344.5,354.5 C 348.833,354.5 353.167,354.5 357.5,354.5C 357.5,356.167 357.5,357.833 357.5,359.5C 353.167,359.5 348.833,359.5 344.5,359.5C 344.5,357.833 344.5,356.167 344.5,354.5 Z"/></g>
<g><path style="opacity:1" fill="#42b683" d="M 404.5,405.5 C 365.71,435.097 321.71,449.763 272.5,449.5C 227.687,449.218 186.687,436.718 149.5,412C 144.353,408.68 139.686,404.847 135.5,400.5C 133.945,398.06 131.945,396.06 129.5,394.5C 129.388,391.56 131.055,389.56 134.5,388.5C 136.115,389.154 137.782,389.654 139.5,390C 137.717,391.067 137.217,392.567 138,394.5C 138.589,392.137 140.089,391.137 142.5,391.5C 142.351,390.448 142.517,389.448 143,388.5C 146.565,390.053 149.899,389.72 153,387.5C 166.381,388.346 180.048,388.68 194,388.5C 195.888,388.204 197.722,387.704 199.5,387C 265.833,386.333 332.167,386.333 398.5,387C 399.731,388.183 399.731,389.349 398.5,390.5C 395.527,392.218 393.36,391.551 392,388.5C 390.318,389.865 390.151,391.365 391.5,393C 367.521,392.91 343.521,393.41 319.5,394.5C 336.824,395.333 354.157,395.833 371.5,396C 373.404,398.407 375.738,400.241 378.5,401.5C 381.302,399.469 384.302,397.635 387.5,396C 390.833,395.833 394.167,395.667 397.5,395.5C 401.267,395.547 404.767,396.214 408,397.5C 408.333,396.833 408.667,396.167 409,395.5C 409.798,397.259 409.631,398.926 408.5,400.5C 406.162,398.989 405.496,399.323 406.5,401.5C 405.147,402.524 404.48,403.857 404.5,405.5 Z"/></g>
<g><path style="opacity:1" fill="#47b083" d="M 108.5,337.5 C 101.685,352.07 103.685,365.237 114.5,377C 118.609,380.388 123.275,382.721 128.5,384C 224.5,384.667 320.5,384.667 416.5,384C 429.646,380.687 437.979,372.52 441.5,359.5C 441.489,361.547 441.156,363.547 440.5,365.5C 440.516,367.516 441.516,368.516 443.5,368.5C 432.728,383.274 419.728,395.607 404.5,405.5C 404.48,403.857 405.147,402.524 406.5,401.5C 405.496,399.323 406.162,398.989 408.5,400.5C 409.631,398.926 409.798,397.259 409,395.5C 408.667,396.167 408.333,396.833 408,397.5C 404.767,396.214 401.267,395.547 397.5,395.5C 394.167,395.667 390.833,395.833 387.5,396C 384.302,397.635 381.302,399.469 378.5,401.5C 375.738,400.241 373.404,398.407 371.5,396C 354.157,395.833 336.824,395.333 319.5,394.5C 343.521,393.41 367.521,392.91 391.5,393C 390.151,391.365 390.318,389.865 392,388.5C 393.36,391.551 395.527,392.218 398.5,390.5C 399.731,389.349 399.731,388.183 398.5,387C 332.167,386.333 265.833,386.333 199.5,387C 197.722,387.704 195.888,388.204 194,388.5C 180.048,388.68 166.381,388.346 153,387.5C 149.899,389.72 146.565,390.053 143,388.5C 142.517,389.448 142.351,390.448 142.5,391.5C 140.089,391.137 138.589,392.137 138,394.5C 137.217,392.567 137.717,391.067 139.5,390C 137.782,389.654 136.115,389.154 134.5,388.5C 131.055,389.56 129.388,391.56 129.5,394.5C 131.945,396.06 133.945,398.06 135.5,400.5C 118.774,387.774 104.44,372.774 92.5,355.5C 96.6379,356.855 99.3045,359.689 100.5,364C 101.449,364.617 102.282,364.451 103,363.5C 102.645,355.195 103.145,346.862 104.5,338.5C 105.959,338.567 107.292,338.234 108.5,337.5 Z"/></g>
</svg>
